# xmcd
#
# Track frame offsets:
#	150
#	13862
#	27900
#	43730
#	59225
#	76102
#	90570
#	107142
#	125230
#	140495
#	160600
#	178575
#	193657
#	214040
#	230347
#	244772
#	261262
#	287495
#
# Disc length: 4212 seconds
#
# Revision: 0
# Processed by: cddbd v1.5.2PL0 Copyright (c) Steve Scherf et al.
# Submitted via: audiograbber 1.83.01
#
DISCID=01107212
DTITLE=moby - GO: THE VERY BEST OF MOBY 
DYEAR=2006
DGENRE=electronico
TTITLE0=NATURAL BLUES 
TTITLE1=LIFT ME UP 
TTITLE2=PORCELAIN
TTITLE3=IN THIS WORLD 
TTITLE4=WHY DOES MY HEART FEEL SO BAD?
TTITLE5=JAMES BOND THEME 
TTITLE6=ESCAPAR (SLIPPING AWAY) WITH AMARAL 
TTITLE7=GO
TTITLE8=BODYROCK
TTITLE9=NEW YORK, NEW YORK FEATURING DEBBIE HARRY 
TTITLE10=FIND MY BABY 
TTITLE11=IN MY HEART 
TTITLE12=FEELING SO REAL 
TTITLE13=WE ARE ALL MADE OF STARS 
TTITLE14=BEAUTIFUL 
TTITLE15=MOVE 
TTITLE16=HONEY 
TTITLE17=Pista de Datos
EXTD=
EXTT0=
EXTT1=
EXTT2=
EXTT3=
EXTT4=
EXTT5=
EXTT6=
EXTT7=
EXTT8=
EXTT9=
EXTT10=
EXTT11=
EXTT12=
EXTT13=
EXTT14=
EXTT15=
EXTT16=
EXTT17=
PLAYORDER=
